<?xml version="1.0" standalone="no"?>
<!DOCTYPE svg PUBLIC "-//W3C//DTD SVG 20010904//EN"
 "http://www.w3.org/TR/2001/REC-SVG-20010904/DTD/svg10.dtd">
<svg version="1.0" xmlns="http://www.w3.org/2000/svg"
 width="679.000000pt" height="232.000000pt" viewBox="0 0 679.000000 232.000000"
 preserveAspectRatio="xMidYMid meet">

<g transform="translate(0.000000,232.000000) scale(0.100000,-0.100000)"
fill="#000000" stroke="none">
<path d="M1280 2171 c43 -6 44 -7 43 -41 0 -19 -3 -56 -6 -82 -5 -51 1 -58 51
-58 33 -1 66 -24 59 -42 -2 -7 0 -23 4 -35 5 -14 4 -23 -4 -27 -9 -3 -9 -5 1
-5 6 -1 12 -5 12 -11 0 -5 -33 -11 -72 -13 -57 -2 -48 -3 38 -5 100 -2 115 -5
148 -27 42 -29 42 -29 22 86 -15 85 -43 145 -83 185 -45 43 -128 76 -197 79
-51 2 -54 2 -16 -4z"/>
<path d="M540 1470 c-85 -31 -131 -68 -165 -135 -28 -55 -30 -65 -30 -174 0
-64 5 -123 10 -131 14 -23 191 -184 224 -204 10 -7 11 -4 2 12 -6 11 -18 27
-26 35 -13 13 -13 16 0 21 8 3 15 1 15 -4 0 -6 5 -10 10 -10 6 0 -1 17 -14 38
-53 80 -146 248 -146 263 0 49 60 42 118 -14 17 -17 32 -26 32 -19 0 7 -3 12
-7 12 -5 0 -8 33 -8 74 0 62 4 78 21 98 33 36 54 128 30 128 -6 0 -2 7 8 15
20 15 20 15 0 15 -10 -1 -44 -10 -74 -20z"/>
<path d="M662 1380 c0 -19 2 -27 5 -17 2 9 2 25 0 35 -3 9 -5 1 -5 -18z"/>
<path d="M2255 1267 c4 -27 3 -37 -4 -32 -6 3 -11 2 -11 -3 0 -6 -8 -9 -17 -7
-70 14 -93 13 -93 -3 0 -14 -2 -13 -13 3 -16 21 -21 15 -36 -40 -6 -22 -17
-49 -26 -60 -12 -16 -14 -17 -9 -3 5 14 1 18 -20 16 -14 -1 -26 -6 -26 -10 0
-4 -6 -8 -14 -8 -8 0 -17 -6 -19 -12 -3 -7 -6 10 -7 37 l-2 50 -9 -40 c-4 -22
-8 -64 -8 -93 -1 -61 -12 -88 -49 -119 l-26 -22 45 6 c77 9 168 32 208 52 59
31 116 101 135 169 18 67 20 120 5 142 -8 11 -9 5 -4 -23z"/>
<path d="M2570 1261 c0 -5 13 -14 29 -20 52 -22 56 -42 56 -295 0 -224 -1
-232 -23 -263 -12 -17 -31 -35 -42 -38 -11 -4 -20 -13 -20 -20 0 -12 32 -14
175 -14 145 0 175 2 175 14 0 8 -13 21 -30 30 -41 21 -52 46 -58 141 l-5 82
60 -5 c36 -3 75 -1 97 7 50 16 105 66 127 115 14 31 19 35 19 17 0 -12 -9 -40
-20 -62 -26 -51 -25 -54 8 -33 75 47 112 101 112 168 0 40 -12 66 -55 113 -28
32 -85 69 -85 57 0 -3 9 -24 21 -46 11 -22 18 -50 16 -62 l-4 -22 -2 22 c-2
34 -70 99 -116 112 -48 13 -435 15 -435 2z m404 -51 c59 -22 84 -126 51 -206
-20 -48 -90 -80 -149 -68 l-41 9 -3 80 c-5 123 5 185 31 194 25 10 73 6 111
-9z m166 -152 c-7 -19 -9 -15 -9 22 0 37 2 41 9 23 6 -14 6 -32 0 -45z"/>
<path d="M4703 1256 c-87 -29 -137 -72 -181 -160 -22 -44 -26 -64 -26 -146 -1
-165 47 -259 165 -321 38 -20 59 -23 154 -24 80 0 126 5 167 18 32 11 60 22
62 25 2 4 7 31 11 60 6 47 5 52 -12 52 -11 0 -30 -12 -42 -26 -34 -39 -122
-74 -187 -74 -146 0 -234 105 -234 277 0 90 16 145 58 194 109 127 320 95 362
-57 16 -57 45 -61 54 -6 10 64 7 150 -6 159 -58 37 -268 55 -345 29z"/>
<path d="M4471 1132 c-55 -55 -81 -119 -81 -196 0 -97 50 -204 112 -240 44
-26 50 -18 23 29 -52 95 -57 297 -10 403 13 28 19 52 14 52 -5 0 -31 -22 -58
-48z"/>
<path d="M3260 1050 c0 -6 8 -13 18 -17 49 -18 52 -27 52 -187 -1 -158 -4
-172 -47 -195 -13 -6 -23 -18 -23 -27 0 -12 13 -14 73 -12 l72 3 3 223 2 222
-75 0 c-45 0 -75 -4 -75 -10z"/>
<path d="M3420 835 l0 -225 80 0 c65 0 80 3 80 15 0 9 -12 20 -27 26 -47 17
-52 35 -53 161 0 64 4 119 8 122 4 2 27 -4 51 -15 56 -25 63 -24 95 7 30 31
35 50 8 33 -14 -9 -25 -8 -50 5 -17 9 -40 16 -52 16 -11 0 -20 5 -20 10 0 6
15 10 34 10 19 0 38 -4 41 -10 3 -5 26 -10 50 -10 40 0 47 4 70 38 25 37 25
37 4 40 -11 2 -29 -4 -39 -13 -18 -16 -22 -16 -60 -1 -56 22 -97 21 -112 -4
-7 -11 -16 -20 -20 -20 -5 0 -8 9 -8 20 0 17 -7 20 -40 20 l-40 0 0 -225z"/>
<path d="M3960 1044 c-34 -14 -79 -66 -92 -108 -6 -20 -6 -20 -7 2 -1 13 6 37
15 53 8 17 13 34 10 37 -10 9 -87 -70 -102 -105 -18 -43 -18 -115 2 -161 17
-42 71 -102 91 -102 16 0 17 12 2 27 -8 8 -8 13 0 17 6 4 11 2 11 -5 0 -34 99
-89 160 -89 69 0 179 68 181 113 1 16 2 18 6 5 2 -9 -1 -27 -7 -38 -19 -36 -4
-34 38 4 52 47 72 92 72 158 -1 69 -32 123 -95 164 -28 18 -29 18 -22 1 4 -11
9 -31 12 -45 5 -23 4 -24 -4 -7 -13 29 -61 72 -94 84 -40 15 -136 13 -177 -5z
m159 -53 c45 -32 64 -139 41 -236 -18 -79 -95 -117 -161 -78 -41 24 -54 65
-54 168 0 73 4 96 20 119 37 55 101 66 154 27z m138 -198 c-2 -27 -3 -5 -3 47
0 52 1 74 3 48 2 -27 2 -69 0 -95z m-390 -65 c-3 -7 -5 -2 -5 12 0 14 2 19 5
13 2 -7 2 -19 0 -25z"/>
<path d="M5235 1052 c-72 -25 -117 -70 -91 -91 9 -8 21 -4 47 14 78 58 163 53
175 -10 3 -17 4 -45 2 -61 -3 -26 -7 -29 -52 -36 -57 -8 -95 -32 -116 -74 -12
-24 -15 -26 -18 -10 -2 10 1 23 7 29 15 15 14 37 -2 37 -7 0 -29 -14 -50 -31
-33 -27 -37 -35 -37 -78 0 -39 5 -52 28 -73 28 -27 82 -47 82 -31 0 5 -7 18
-15 29 -16 21 -19 34 -7 34 4 0 12 -10 17 -22 6 -12 24 -32 41 -43 28 -19 47
-21 193 -23 136 -1 161 1 161 13 0 8 -8 15 -19 15 -10 0 -23 6 -29 13 -5 6
-12 80 -14 162 -3 83 -10 162 -16 177 -12 28 -41 51 -80 63 -21 6 -23 5 -13
-13 18 -33 13 -37 -14 -12 -21 20 -38 25 -93 27 -37 1 -76 -1 -87 -5z m225
-61 c0 -6 -4 -13 -10 -16 -5 -3 -10 1 -10 9 0 9 5 16 10 16 6 0 10 -4 10 -9z
m-90 -239 c0 -69 -10 -92 -39 -92 -53 1 -79 85 -41 133 15 18 31 27 51 27 l29
0 0 -68z m-193 -14 c-3 -8 -6 -5 -6 6 -1 11 2 17 5 13 3 -3 4 -12 1 -19z"/>
<path d="M5622 1048 c3 -7 14 -14 26 -16 40 -6 52 -50 52 -186 0 -138 -9 -170
-52 -192 -15 -8 -28 -21 -28 -29 0 -12 26 -14 163 -12 167 2 190 9 130 37 -17
8 -37 25 -42 38 -13 28 -15 239 -2 246 5 4 30 -3 56 -14 26 -11 51 -20 56 -20
15 0 59 47 59 62 0 9 -3 9 -10 -2 -8 -13 -14 -13 -42 -1 -18 7 -45 16 -60 18
-46 9 -32 26 15 19 130 -20 122 -21 151 17 14 18 26 37 26 40 0 14 -44 7 -61
-9 -17 -15 -21 -15 -59 0 -54 21 -87 20 -107 -4 -10 -11 -21 -20 -25 -20 -5 0
-8 9 -8 20 0 17 -7 20 -40 20 l-40 0 -3 -217 -2 -218 -3 218 -2 217 -76 0
c-56 0 -75 -3 -72 -12z"/>
<path d="M6330 1049 c-32 -13 -80 -59 -80 -76 0 -7 -4 -13 -10 -13 -5 0 -10
-10 -11 -22 0 -13 -3 -17 -6 -10 -3 7 0 26 6 43 17 49 2 54 -40 13 -65 -63
-82 -158 -43 -235 16 -33 74 -89 91 -89 15 0 18 26 3 35 -12 7 -13 25 -2 25 4
0 13 -14 20 -30 8 -17 30 -43 50 -58 32 -25 43 -27 121 -27 75 0 91 3 122 25
37 24 99 105 99 128 0 26 -45 11 -73 -23 -34 -43 -94 -75 -140 -75 -69 0 -137
76 -137 152 l0 38 138 1 c75 1 158 1 185 -1 45 -2 47 -1 47 25 0 39 -45 116
-83 143 -40 27 -51 28 -38 4 16 -30 41 -105 41 -124 0 -10 -4 -18 -10 -18 -5
0 -10 11 -10 25 0 33 -31 94 -64 125 -21 19 -39 25 -89 27 -34 2 -73 -2 -87
-8z m98 -40 c26 -9 62 -57 62 -83 0 -3 -40 -6 -90 -6 -79 0 -90 2 -90 18 1 24
30 59 60 71 14 5 25 10 26 10 1 1 15 -4 32 -10z m-201 -271 c-3 -7 -5 -2 -5
12 0 14 2 19 5 13 2 -7 2 -19 0 -25z"/>
<path d="M1145 899 c4 -13 2 -18 -7 -16 -7 2 -10 2 -5 0 4 -3 7 -25 7 -50 0
-33 4 -44 13 -40 7 3 13 -3 13 -14 0 -13 -3 -15 -13 -7 -22 18 -14 -1 15 -38
15 -18 33 -34 40 -34 7 0 11 -4 7 -9 -3 -5 -1 -12 5 -16 21 -13 8 -23 -29 -22
-21 1 -37 5 -35 8 2 4 -5 9 -17 12 -17 5 -18 3 -7 -11 11 -14 10 -15 -7 -9
-20 7 -20 7 -1 -8 18 -13 15 -20 -6 -16 -5 0 -8 -4 -8 -9 0 -5 5 -10 10 -10
12 0 9 -22 -5 -32 -5 -4 -28 -8 -50 -8 -49 0 -100 -31 -101 -62 -1 -13 3 -26
10 -30 7 -5 7 -8 -3 -8 -11 0 -11 -3 -1 -15 7 -8 19 -15 26 -15 8 0 14 -6 14
-14 0 -20 -113 -103 -152 -112 -30 -7 -27 -9 47 -25 207 -46 497 -51 648 -10
248 66 465 233 593 456 l29 50 -60 -61 c-33 -33 -82 -70 -109 -83 -58 -27
-159 -46 -164 -31 -2 6 -11 10 -20 11 -11 0 -12 3 -5 6 10 4 10 9 1 26 -7 12
-13 37 -14 55 -1 18 -10 45 -21 60 -24 33 -29 132 -7 132 7 0 16 5 19 10 4 6
-30 10 -94 10 l-101 0 0 -130 c0 -150 -2 -153 -74 -122 -24 11 -46 18 -49 16
-4 -4 -125 71 -137 85 -3 3 -27 24 -55 45 -27 22 -61 52 -75 66 -14 15 -35 29
-48 33 -19 4 -22 2 -17 -14z m53 -169 c7 -11 9 -20 4 -20 -4 0 -13 9 -20 20
-7 11 -9 20 -4 20 4 0 13 -9 20 -20z"/>
<path d="M595 850 c3 -5 8 -10 11 -10 2 0 4 5 4 10 0 6 -5 10 -11 10 -5 0 -7
-4 -4 -10z"/>
</g>
</svg>
